%TF.GenerationSoftware,KiCad,Pcbnew,10.0.1*%
%TF.CreationDate,2026-04-27T18:39:01+02:00*%
%TF.ProjectId,tagconnect6p-2-jlink-interface,74616763-6f6e-46e6-9563-7436702d322d,rev?*%
%TF.SameCoordinates,Original*%
%TF.FileFunction,Legend,Bot*%
%TF.FilePolarity,Positive*%
%FSLAX46Y46*%
G04 Gerber Fmt 4.6, Leading zero omitted, Abs format (unit mm)*
G04 Created by KiCad (PCBNEW 10.0.1) date 2026-04-27 18:39:01*
%MOMM*%
%LPD*%
G01*
G04 APERTURE LIST*
%ADD10C,0.150000*%
G04 APERTURE END LIST*
D10*
X161808684Y-93805826D02*
X161761065Y-93758207D01*
X161761065Y-93758207D02*
X161713446Y-93662969D01*
X161713446Y-93662969D02*
X161713446Y-93567731D01*
X161713446Y-93567731D02*
X161761065Y-93472493D01*
X161761065Y-93472493D02*
X161808684Y-93424874D01*
X161808684Y-93424874D02*
X161903922Y-93377255D01*
X161903922Y-93377255D02*
X161999160Y-93377255D01*
X161999160Y-93377255D02*
X162094398Y-93424874D01*
X162094398Y-93424874D02*
X162142017Y-93472493D01*
X162142017Y-93472493D02*
X162189636Y-93567731D01*
X162189636Y-93567731D02*
X162189636Y-93662969D01*
X162189636Y-93662969D02*
X162142017Y-93758207D01*
X162142017Y-93758207D02*
X162094398Y-93805826D01*
X161713446Y-93805826D02*
X162094398Y-93805826D01*
X162094398Y-93805826D02*
X162142017Y-93853445D01*
X162142017Y-93853445D02*
X162142017Y-93901064D01*
X162142017Y-93901064D02*
X162094398Y-93996303D01*
X162094398Y-93996303D02*
X161999160Y-94043922D01*
X161999160Y-94043922D02*
X161761065Y-94043922D01*
X161761065Y-94043922D02*
X161618208Y-93948684D01*
X161618208Y-93948684D02*
X161522970Y-93805826D01*
X161522970Y-93805826D02*
X161475351Y-93615350D01*
X161475351Y-93615350D02*
X161522970Y-93424874D01*
X161522970Y-93424874D02*
X161618208Y-93282017D01*
X161618208Y-93282017D02*
X161761065Y-93186779D01*
X161761065Y-93186779D02*
X161951541Y-93139160D01*
X161951541Y-93139160D02*
X162142017Y-93186779D01*
X162142017Y-93186779D02*
X162284875Y-93282017D01*
X162284875Y-93282017D02*
X162380113Y-93424874D01*
X162380113Y-93424874D02*
X162427732Y-93615350D01*
X162427732Y-93615350D02*
X162380113Y-93805826D01*
X162380113Y-93805826D02*
X162284875Y-93948684D01*
X161284875Y-94329636D02*
X162284875Y-94662969D01*
X162284875Y-94662969D02*
X161284875Y-94996302D01*
X162284875Y-95329636D02*
X161618208Y-95329636D01*
X161284875Y-95329636D02*
X161332494Y-95282017D01*
X161332494Y-95282017D02*
X161380113Y-95329636D01*
X161380113Y-95329636D02*
X161332494Y-95377255D01*
X161332494Y-95377255D02*
X161284875Y-95329636D01*
X161284875Y-95329636D02*
X161380113Y-95329636D01*
X162237256Y-96234397D02*
X162284875Y-96139159D01*
X162284875Y-96139159D02*
X162284875Y-95948683D01*
X162284875Y-95948683D02*
X162237256Y-95853445D01*
X162237256Y-95853445D02*
X162189636Y-95805826D01*
X162189636Y-95805826D02*
X162094398Y-95758207D01*
X162094398Y-95758207D02*
X161808684Y-95758207D01*
X161808684Y-95758207D02*
X161713446Y-95805826D01*
X161713446Y-95805826D02*
X161665827Y-95853445D01*
X161665827Y-95853445D02*
X161618208Y-95948683D01*
X161618208Y-95948683D02*
X161618208Y-96139159D01*
X161618208Y-96139159D02*
X161665827Y-96234397D01*
X161618208Y-96520112D02*
X161618208Y-96901064D01*
X161284875Y-96662969D02*
X162142017Y-96662969D01*
X162142017Y-96662969D02*
X162237256Y-96710588D01*
X162237256Y-96710588D02*
X162284875Y-96805826D01*
X162284875Y-96805826D02*
X162284875Y-96901064D01*
X162284875Y-97377255D02*
X162237256Y-97282017D01*
X162237256Y-97282017D02*
X162189636Y-97234398D01*
X162189636Y-97234398D02*
X162094398Y-97186779D01*
X162094398Y-97186779D02*
X161808684Y-97186779D01*
X161808684Y-97186779D02*
X161713446Y-97234398D01*
X161713446Y-97234398D02*
X161665827Y-97282017D01*
X161665827Y-97282017D02*
X161618208Y-97377255D01*
X161618208Y-97377255D02*
X161618208Y-97520112D01*
X161618208Y-97520112D02*
X161665827Y-97615350D01*
X161665827Y-97615350D02*
X161713446Y-97662969D01*
X161713446Y-97662969D02*
X161808684Y-97710588D01*
X161808684Y-97710588D02*
X162094398Y-97710588D01*
X162094398Y-97710588D02*
X162189636Y-97662969D01*
X162189636Y-97662969D02*
X162237256Y-97615350D01*
X162237256Y-97615350D02*
X162284875Y-97520112D01*
X162284875Y-97520112D02*
X162284875Y-97377255D01*
X162284875Y-98139160D02*
X161618208Y-98139160D01*
X161808684Y-98139160D02*
X161713446Y-98186779D01*
X161713446Y-98186779D02*
X161665827Y-98234398D01*
X161665827Y-98234398D02*
X161618208Y-98329636D01*
X161618208Y-98329636D02*
X161618208Y-98424874D01*
X162284875Y-98758208D02*
X161284875Y-98758208D01*
X161284875Y-98758208D02*
X161999160Y-99091541D01*
X161999160Y-99091541D02*
X161284875Y-99424874D01*
X161284875Y-99424874D02*
X162284875Y-99424874D01*
X162284875Y-100329636D02*
X161761065Y-100329636D01*
X161761065Y-100329636D02*
X161665827Y-100282017D01*
X161665827Y-100282017D02*
X161618208Y-100186779D01*
X161618208Y-100186779D02*
X161618208Y-99996303D01*
X161618208Y-99996303D02*
X161665827Y-99901065D01*
X162237256Y-100329636D02*
X162284875Y-100234398D01*
X162284875Y-100234398D02*
X162284875Y-99996303D01*
X162284875Y-99996303D02*
X162237256Y-99901065D01*
X162237256Y-99901065D02*
X162142017Y-99853446D01*
X162142017Y-99853446D02*
X162046779Y-99853446D01*
X162046779Y-99853446D02*
X161951541Y-99901065D01*
X161951541Y-99901065D02*
X161903922Y-99996303D01*
X161903922Y-99996303D02*
X161903922Y-100234398D01*
X161903922Y-100234398D02*
X161856303Y-100329636D01*
X161618208Y-100805827D02*
X162284875Y-100805827D01*
X161713446Y-100805827D02*
X161665827Y-100853446D01*
X161665827Y-100853446D02*
X161618208Y-100948684D01*
X161618208Y-100948684D02*
X161618208Y-101091541D01*
X161618208Y-101091541D02*
X161665827Y-101186779D01*
X161665827Y-101186779D02*
X161761065Y-101234398D01*
X161761065Y-101234398D02*
X162284875Y-101234398D01*
X161618208Y-102139160D02*
X162284875Y-102139160D01*
X161618208Y-101710589D02*
X162142017Y-101710589D01*
X162142017Y-101710589D02*
X162237256Y-101758208D01*
X162237256Y-101758208D02*
X162284875Y-101853446D01*
X162284875Y-101853446D02*
X162284875Y-101996303D01*
X162284875Y-101996303D02*
X162237256Y-102091541D01*
X162237256Y-102091541D02*
X162189636Y-102139160D01*
X162237256Y-102996303D02*
X162284875Y-102901065D01*
X162284875Y-102901065D02*
X162284875Y-102710589D01*
X162284875Y-102710589D02*
X162237256Y-102615351D01*
X162237256Y-102615351D02*
X162142017Y-102567732D01*
X162142017Y-102567732D02*
X161761065Y-102567732D01*
X161761065Y-102567732D02*
X161665827Y-102615351D01*
X161665827Y-102615351D02*
X161618208Y-102710589D01*
X161618208Y-102710589D02*
X161618208Y-102901065D01*
X161618208Y-102901065D02*
X161665827Y-102996303D01*
X161665827Y-102996303D02*
X161761065Y-103043922D01*
X161761065Y-103043922D02*
X161856303Y-103043922D01*
X161856303Y-103043922D02*
X161951541Y-102567732D01*
X162284875Y-103615351D02*
X162237256Y-103520113D01*
X162237256Y-103520113D02*
X162142017Y-103472494D01*
X162142017Y-103472494D02*
X161284875Y-103472494D01*
X161903922Y-103996304D02*
X161903922Y-104758209D01*
X161761065Y-105567732D02*
X161808684Y-105710589D01*
X161808684Y-105710589D02*
X161856303Y-105758208D01*
X161856303Y-105758208D02*
X161951541Y-105805827D01*
X161951541Y-105805827D02*
X162094398Y-105805827D01*
X162094398Y-105805827D02*
X162189636Y-105758208D01*
X162189636Y-105758208D02*
X162237256Y-105710589D01*
X162237256Y-105710589D02*
X162284875Y-105615351D01*
X162284875Y-105615351D02*
X162284875Y-105234399D01*
X162284875Y-105234399D02*
X161284875Y-105234399D01*
X161284875Y-105234399D02*
X161284875Y-105567732D01*
X161284875Y-105567732D02*
X161332494Y-105662970D01*
X161332494Y-105662970D02*
X161380113Y-105710589D01*
X161380113Y-105710589D02*
X161475351Y-105758208D01*
X161475351Y-105758208D02*
X161570589Y-105758208D01*
X161570589Y-105758208D02*
X161665827Y-105710589D01*
X161665827Y-105710589D02*
X161713446Y-105662970D01*
X161713446Y-105662970D02*
X161761065Y-105567732D01*
X161761065Y-105567732D02*
X161761065Y-105234399D01*
X162284875Y-106662970D02*
X161761065Y-106662970D01*
X161761065Y-106662970D02*
X161665827Y-106615351D01*
X161665827Y-106615351D02*
X161618208Y-106520113D01*
X161618208Y-106520113D02*
X161618208Y-106329637D01*
X161618208Y-106329637D02*
X161665827Y-106234399D01*
X162237256Y-106662970D02*
X162284875Y-106567732D01*
X162284875Y-106567732D02*
X162284875Y-106329637D01*
X162284875Y-106329637D02*
X162237256Y-106234399D01*
X162237256Y-106234399D02*
X162142017Y-106186780D01*
X162142017Y-106186780D02*
X162046779Y-106186780D01*
X162046779Y-106186780D02*
X161951541Y-106234399D01*
X161951541Y-106234399D02*
X161903922Y-106329637D01*
X161903922Y-106329637D02*
X161903922Y-106567732D01*
X161903922Y-106567732D02*
X161856303Y-106662970D01*
X161618208Y-107567732D02*
X162284875Y-107567732D01*
X161618208Y-107139161D02*
X162142017Y-107139161D01*
X162142017Y-107139161D02*
X162237256Y-107186780D01*
X162237256Y-107186780D02*
X162284875Y-107282018D01*
X162284875Y-107282018D02*
X162284875Y-107424875D01*
X162284875Y-107424875D02*
X162237256Y-107520113D01*
X162237256Y-107520113D02*
X162189636Y-107567732D01*
X161618208Y-107901066D02*
X161618208Y-108282018D01*
X161284875Y-108043923D02*
X162142017Y-108043923D01*
X162142017Y-108043923D02*
X162237256Y-108091542D01*
X162237256Y-108091542D02*
X162284875Y-108186780D01*
X162284875Y-108186780D02*
X162284875Y-108282018D01*
X162284875Y-108615352D02*
X161618208Y-108615352D01*
X161284875Y-108615352D02*
X161332494Y-108567733D01*
X161332494Y-108567733D02*
X161380113Y-108615352D01*
X161380113Y-108615352D02*
X161332494Y-108662971D01*
X161332494Y-108662971D02*
X161284875Y-108615352D01*
X161284875Y-108615352D02*
X161380113Y-108615352D01*
X162237256Y-109043923D02*
X162284875Y-109139161D01*
X162284875Y-109139161D02*
X162284875Y-109329637D01*
X162284875Y-109329637D02*
X162237256Y-109424875D01*
X162237256Y-109424875D02*
X162142017Y-109472494D01*
X162142017Y-109472494D02*
X162094398Y-109472494D01*
X162094398Y-109472494D02*
X161999160Y-109424875D01*
X161999160Y-109424875D02*
X161951541Y-109329637D01*
X161951541Y-109329637D02*
X161951541Y-109186780D01*
X161951541Y-109186780D02*
X161903922Y-109091542D01*
X161903922Y-109091542D02*
X161808684Y-109043923D01*
X161808684Y-109043923D02*
X161761065Y-109043923D01*
X161761065Y-109043923D02*
X161665827Y-109091542D01*
X161665827Y-109091542D02*
X161618208Y-109186780D01*
X161618208Y-109186780D02*
X161618208Y-109329637D01*
X161618208Y-109329637D02*
X161665827Y-109424875D01*
X161618208Y-109758209D02*
X161618208Y-110139161D01*
X161284875Y-109901066D02*
X162142017Y-109901066D01*
X162142017Y-109901066D02*
X162237256Y-109948685D01*
X162237256Y-109948685D02*
X162284875Y-110043923D01*
X162284875Y-110043923D02*
X162284875Y-110139161D01*
X162284875Y-110901066D02*
X161761065Y-110901066D01*
X161761065Y-110901066D02*
X161665827Y-110853447D01*
X161665827Y-110853447D02*
X161618208Y-110758209D01*
X161618208Y-110758209D02*
X161618208Y-110567733D01*
X161618208Y-110567733D02*
X161665827Y-110472495D01*
X162237256Y-110901066D02*
X162284875Y-110805828D01*
X162284875Y-110805828D02*
X162284875Y-110567733D01*
X162284875Y-110567733D02*
X162237256Y-110472495D01*
X162237256Y-110472495D02*
X162142017Y-110424876D01*
X162142017Y-110424876D02*
X162046779Y-110424876D01*
X162046779Y-110424876D02*
X161951541Y-110472495D01*
X161951541Y-110472495D02*
X161903922Y-110567733D01*
X161903922Y-110567733D02*
X161903922Y-110805828D01*
X161903922Y-110805828D02*
X161856303Y-110901066D01*
X161237256Y-112091542D02*
X162522970Y-111234400D01*
X162894819Y-93043922D02*
X162894819Y-93615350D01*
X163894819Y-93329636D02*
X162894819Y-93329636D01*
X163894819Y-94377255D02*
X163371009Y-94377255D01*
X163371009Y-94377255D02*
X163275771Y-94329636D01*
X163275771Y-94329636D02*
X163228152Y-94234398D01*
X163228152Y-94234398D02*
X163228152Y-94043922D01*
X163228152Y-94043922D02*
X163275771Y-93948684D01*
X163847200Y-94377255D02*
X163894819Y-94282017D01*
X163894819Y-94282017D02*
X163894819Y-94043922D01*
X163894819Y-94043922D02*
X163847200Y-93948684D01*
X163847200Y-93948684D02*
X163751961Y-93901065D01*
X163751961Y-93901065D02*
X163656723Y-93901065D01*
X163656723Y-93901065D02*
X163561485Y-93948684D01*
X163561485Y-93948684D02*
X163513866Y-94043922D01*
X163513866Y-94043922D02*
X163513866Y-94282017D01*
X163513866Y-94282017D02*
X163466247Y-94377255D01*
X163228152Y-95282017D02*
X164037676Y-95282017D01*
X164037676Y-95282017D02*
X164132914Y-95234398D01*
X164132914Y-95234398D02*
X164180533Y-95186779D01*
X164180533Y-95186779D02*
X164228152Y-95091541D01*
X164228152Y-95091541D02*
X164228152Y-94948684D01*
X164228152Y-94948684D02*
X164180533Y-94853446D01*
X163847200Y-95282017D02*
X163894819Y-95186779D01*
X163894819Y-95186779D02*
X163894819Y-94996303D01*
X163894819Y-94996303D02*
X163847200Y-94901065D01*
X163847200Y-94901065D02*
X163799580Y-94853446D01*
X163799580Y-94853446D02*
X163704342Y-94805827D01*
X163704342Y-94805827D02*
X163418628Y-94805827D01*
X163418628Y-94805827D02*
X163323390Y-94853446D01*
X163323390Y-94853446D02*
X163275771Y-94901065D01*
X163275771Y-94901065D02*
X163228152Y-94996303D01*
X163228152Y-94996303D02*
X163228152Y-95186779D01*
X163228152Y-95186779D02*
X163275771Y-95282017D01*
X163799580Y-96329636D02*
X163847200Y-96282017D01*
X163847200Y-96282017D02*
X163894819Y-96139160D01*
X163894819Y-96139160D02*
X163894819Y-96043922D01*
X163894819Y-96043922D02*
X163847200Y-95901065D01*
X163847200Y-95901065D02*
X163751961Y-95805827D01*
X163751961Y-95805827D02*
X163656723Y-95758208D01*
X163656723Y-95758208D02*
X163466247Y-95710589D01*
X163466247Y-95710589D02*
X163323390Y-95710589D01*
X163323390Y-95710589D02*
X163132914Y-95758208D01*
X163132914Y-95758208D02*
X163037676Y-95805827D01*
X163037676Y-95805827D02*
X162942438Y-95901065D01*
X162942438Y-95901065D02*
X162894819Y-96043922D01*
X162894819Y-96043922D02*
X162894819Y-96139160D01*
X162894819Y-96139160D02*
X162942438Y-96282017D01*
X162942438Y-96282017D02*
X162990057Y-96329636D01*
X163894819Y-96901065D02*
X163847200Y-96805827D01*
X163847200Y-96805827D02*
X163799580Y-96758208D01*
X163799580Y-96758208D02*
X163704342Y-96710589D01*
X163704342Y-96710589D02*
X163418628Y-96710589D01*
X163418628Y-96710589D02*
X163323390Y-96758208D01*
X163323390Y-96758208D02*
X163275771Y-96805827D01*
X163275771Y-96805827D02*
X163228152Y-96901065D01*
X163228152Y-96901065D02*
X163228152Y-97043922D01*
X163228152Y-97043922D02*
X163275771Y-97139160D01*
X163275771Y-97139160D02*
X163323390Y-97186779D01*
X163323390Y-97186779D02*
X163418628Y-97234398D01*
X163418628Y-97234398D02*
X163704342Y-97234398D01*
X163704342Y-97234398D02*
X163799580Y-97186779D01*
X163799580Y-97186779D02*
X163847200Y-97139160D01*
X163847200Y-97139160D02*
X163894819Y-97043922D01*
X163894819Y-97043922D02*
X163894819Y-96901065D01*
X163228152Y-97662970D02*
X163894819Y-97662970D01*
X163323390Y-97662970D02*
X163275771Y-97710589D01*
X163275771Y-97710589D02*
X163228152Y-97805827D01*
X163228152Y-97805827D02*
X163228152Y-97948684D01*
X163228152Y-97948684D02*
X163275771Y-98043922D01*
X163275771Y-98043922D02*
X163371009Y-98091541D01*
X163371009Y-98091541D02*
X163894819Y-98091541D01*
X163228152Y-98567732D02*
X163894819Y-98567732D01*
X163323390Y-98567732D02*
X163275771Y-98615351D01*
X163275771Y-98615351D02*
X163228152Y-98710589D01*
X163228152Y-98710589D02*
X163228152Y-98853446D01*
X163228152Y-98853446D02*
X163275771Y-98948684D01*
X163275771Y-98948684D02*
X163371009Y-98996303D01*
X163371009Y-98996303D02*
X163894819Y-98996303D01*
X163847200Y-99853446D02*
X163894819Y-99758208D01*
X163894819Y-99758208D02*
X163894819Y-99567732D01*
X163894819Y-99567732D02*
X163847200Y-99472494D01*
X163847200Y-99472494D02*
X163751961Y-99424875D01*
X163751961Y-99424875D02*
X163371009Y-99424875D01*
X163371009Y-99424875D02*
X163275771Y-99472494D01*
X163275771Y-99472494D02*
X163228152Y-99567732D01*
X163228152Y-99567732D02*
X163228152Y-99758208D01*
X163228152Y-99758208D02*
X163275771Y-99853446D01*
X163275771Y-99853446D02*
X163371009Y-99901065D01*
X163371009Y-99901065D02*
X163466247Y-99901065D01*
X163466247Y-99901065D02*
X163561485Y-99424875D01*
X163847200Y-100758208D02*
X163894819Y-100662970D01*
X163894819Y-100662970D02*
X163894819Y-100472494D01*
X163894819Y-100472494D02*
X163847200Y-100377256D01*
X163847200Y-100377256D02*
X163799580Y-100329637D01*
X163799580Y-100329637D02*
X163704342Y-100282018D01*
X163704342Y-100282018D02*
X163418628Y-100282018D01*
X163418628Y-100282018D02*
X163323390Y-100329637D01*
X163323390Y-100329637D02*
X163275771Y-100377256D01*
X163275771Y-100377256D02*
X163228152Y-100472494D01*
X163228152Y-100472494D02*
X163228152Y-100662970D01*
X163228152Y-100662970D02*
X163275771Y-100758208D01*
X163228152Y-101043923D02*
X163228152Y-101424875D01*
X162894819Y-101186780D02*
X163751961Y-101186780D01*
X163751961Y-101186780D02*
X163847200Y-101234399D01*
X163847200Y-101234399D02*
X163894819Y-101329637D01*
X163894819Y-101329637D02*
X163894819Y-101424875D01*
X162894819Y-102186780D02*
X162894819Y-101996304D01*
X162894819Y-101996304D02*
X162942438Y-101901066D01*
X162942438Y-101901066D02*
X162990057Y-101853447D01*
X162990057Y-101853447D02*
X163132914Y-101758209D01*
X163132914Y-101758209D02*
X163323390Y-101710590D01*
X163323390Y-101710590D02*
X163704342Y-101710590D01*
X163704342Y-101710590D02*
X163799580Y-101758209D01*
X163799580Y-101758209D02*
X163847200Y-101805828D01*
X163847200Y-101805828D02*
X163894819Y-101901066D01*
X163894819Y-101901066D02*
X163894819Y-102091542D01*
X163894819Y-102091542D02*
X163847200Y-102186780D01*
X163847200Y-102186780D02*
X163799580Y-102234399D01*
X163799580Y-102234399D02*
X163704342Y-102282018D01*
X163704342Y-102282018D02*
X163466247Y-102282018D01*
X163466247Y-102282018D02*
X163371009Y-102234399D01*
X163371009Y-102234399D02*
X163323390Y-102186780D01*
X163323390Y-102186780D02*
X163275771Y-102091542D01*
X163275771Y-102091542D02*
X163275771Y-101901066D01*
X163275771Y-101901066D02*
X163323390Y-101805828D01*
X163323390Y-101805828D02*
X163371009Y-101758209D01*
X163371009Y-101758209D02*
X163466247Y-101710590D01*
X163228152Y-102710590D02*
X164228152Y-102710590D01*
X163275771Y-102710590D02*
X163228152Y-102805828D01*
X163228152Y-102805828D02*
X163228152Y-102996304D01*
X163228152Y-102996304D02*
X163275771Y-103091542D01*
X163275771Y-103091542D02*
X163323390Y-103139161D01*
X163323390Y-103139161D02*
X163418628Y-103186780D01*
X163418628Y-103186780D02*
X163704342Y-103186780D01*
X163704342Y-103186780D02*
X163799580Y-103139161D01*
X163799580Y-103139161D02*
X163847200Y-103091542D01*
X163847200Y-103091542D02*
X163894819Y-102996304D01*
X163894819Y-102996304D02*
X163894819Y-102805828D01*
X163894819Y-102805828D02*
X163847200Y-102710590D01*
X163513866Y-103615352D02*
X163513866Y-104377257D01*
X162990057Y-104805828D02*
X162942438Y-104853447D01*
X162942438Y-104853447D02*
X162894819Y-104948685D01*
X162894819Y-104948685D02*
X162894819Y-105186780D01*
X162894819Y-105186780D02*
X162942438Y-105282018D01*
X162942438Y-105282018D02*
X162990057Y-105329637D01*
X162990057Y-105329637D02*
X163085295Y-105377256D01*
X163085295Y-105377256D02*
X163180533Y-105377256D01*
X163180533Y-105377256D02*
X163323390Y-105329637D01*
X163323390Y-105329637D02*
X163894819Y-104758209D01*
X163894819Y-104758209D02*
X163894819Y-105377256D01*
X163513866Y-105805828D02*
X163513866Y-106567733D01*
X162894819Y-107329637D02*
X163609104Y-107329637D01*
X163609104Y-107329637D02*
X163751961Y-107282018D01*
X163751961Y-107282018D02*
X163847200Y-107186780D01*
X163847200Y-107186780D02*
X163894819Y-107043923D01*
X163894819Y-107043923D02*
X163894819Y-106948685D01*
X163894819Y-108282018D02*
X163894819Y-107805828D01*
X163894819Y-107805828D02*
X162894819Y-107805828D01*
X163894819Y-108615352D02*
X163228152Y-108615352D01*
X162894819Y-108615352D02*
X162942438Y-108567733D01*
X162942438Y-108567733D02*
X162990057Y-108615352D01*
X162990057Y-108615352D02*
X162942438Y-108662971D01*
X162942438Y-108662971D02*
X162894819Y-108615352D01*
X162894819Y-108615352D02*
X162990057Y-108615352D01*
X163228152Y-109091542D02*
X163894819Y-109091542D01*
X163323390Y-109091542D02*
X163275771Y-109139161D01*
X163275771Y-109139161D02*
X163228152Y-109234399D01*
X163228152Y-109234399D02*
X163228152Y-109377256D01*
X163228152Y-109377256D02*
X163275771Y-109472494D01*
X163275771Y-109472494D02*
X163371009Y-109520113D01*
X163371009Y-109520113D02*
X163894819Y-109520113D01*
X163894819Y-109996304D02*
X162894819Y-109996304D01*
X163513866Y-110091542D02*
X163894819Y-110377256D01*
X163228152Y-110377256D02*
X163609104Y-109996304D01*
X163513866Y-110805828D02*
X163513866Y-111567733D01*
X163894819Y-112043923D02*
X163228152Y-112043923D01*
X162894819Y-112043923D02*
X162942438Y-111996304D01*
X162942438Y-111996304D02*
X162990057Y-112043923D01*
X162990057Y-112043923D02*
X162942438Y-112091542D01*
X162942438Y-112091542D02*
X162894819Y-112043923D01*
X162894819Y-112043923D02*
X162990057Y-112043923D01*
X163228152Y-112520113D02*
X163894819Y-112520113D01*
X163323390Y-112520113D02*
X163275771Y-112567732D01*
X163275771Y-112567732D02*
X163228152Y-112662970D01*
X163228152Y-112662970D02*
X163228152Y-112805827D01*
X163228152Y-112805827D02*
X163275771Y-112901065D01*
X163275771Y-112901065D02*
X163371009Y-112948684D01*
X163371009Y-112948684D02*
X163894819Y-112948684D01*
X163228152Y-113282018D02*
X163228152Y-113662970D01*
X162894819Y-113424875D02*
X163751961Y-113424875D01*
X163751961Y-113424875D02*
X163847200Y-113472494D01*
X163847200Y-113472494D02*
X163894819Y-113567732D01*
X163894819Y-113567732D02*
X163894819Y-113662970D01*
X163847200Y-114377256D02*
X163894819Y-114282018D01*
X163894819Y-114282018D02*
X163894819Y-114091542D01*
X163894819Y-114091542D02*
X163847200Y-113996304D01*
X163847200Y-113996304D02*
X163751961Y-113948685D01*
X163751961Y-113948685D02*
X163371009Y-113948685D01*
X163371009Y-113948685D02*
X163275771Y-113996304D01*
X163275771Y-113996304D02*
X163228152Y-114091542D01*
X163228152Y-114091542D02*
X163228152Y-114282018D01*
X163228152Y-114282018D02*
X163275771Y-114377256D01*
X163275771Y-114377256D02*
X163371009Y-114424875D01*
X163371009Y-114424875D02*
X163466247Y-114424875D01*
X163466247Y-114424875D02*
X163561485Y-113948685D01*
X163894819Y-114853447D02*
X163228152Y-114853447D01*
X163418628Y-114853447D02*
X163323390Y-114901066D01*
X163323390Y-114901066D02*
X163275771Y-114948685D01*
X163275771Y-114948685D02*
X163228152Y-115043923D01*
X163228152Y-115043923D02*
X163228152Y-115139161D01*
X163228152Y-115329638D02*
X163228152Y-115710590D01*
X163894819Y-115472495D02*
X163037676Y-115472495D01*
X163037676Y-115472495D02*
X162942438Y-115520114D01*
X162942438Y-115520114D02*
X162894819Y-115615352D01*
X162894819Y-115615352D02*
X162894819Y-115710590D01*
X163894819Y-116472495D02*
X163371009Y-116472495D01*
X163371009Y-116472495D02*
X163275771Y-116424876D01*
X163275771Y-116424876D02*
X163228152Y-116329638D01*
X163228152Y-116329638D02*
X163228152Y-116139162D01*
X163228152Y-116139162D02*
X163275771Y-116043924D01*
X163847200Y-116472495D02*
X163894819Y-116377257D01*
X163894819Y-116377257D02*
X163894819Y-116139162D01*
X163894819Y-116139162D02*
X163847200Y-116043924D01*
X163847200Y-116043924D02*
X163751961Y-115996305D01*
X163751961Y-115996305D02*
X163656723Y-115996305D01*
X163656723Y-115996305D02*
X163561485Y-116043924D01*
X163561485Y-116043924D02*
X163513866Y-116139162D01*
X163513866Y-116139162D02*
X163513866Y-116377257D01*
X163513866Y-116377257D02*
X163466247Y-116472495D01*
X163847200Y-117377257D02*
X163894819Y-117282019D01*
X163894819Y-117282019D02*
X163894819Y-117091543D01*
X163894819Y-117091543D02*
X163847200Y-116996305D01*
X163847200Y-116996305D02*
X163799580Y-116948686D01*
X163799580Y-116948686D02*
X163704342Y-116901067D01*
X163704342Y-116901067D02*
X163418628Y-116901067D01*
X163418628Y-116901067D02*
X163323390Y-116948686D01*
X163323390Y-116948686D02*
X163275771Y-116996305D01*
X163275771Y-116996305D02*
X163228152Y-117091543D01*
X163228152Y-117091543D02*
X163228152Y-117282019D01*
X163228152Y-117282019D02*
X163275771Y-117377257D01*
X163847200Y-118186781D02*
X163894819Y-118091543D01*
X163894819Y-118091543D02*
X163894819Y-117901067D01*
X163894819Y-117901067D02*
X163847200Y-117805829D01*
X163847200Y-117805829D02*
X163751961Y-117758210D01*
X163751961Y-117758210D02*
X163371009Y-117758210D01*
X163371009Y-117758210D02*
X163275771Y-117805829D01*
X163275771Y-117805829D02*
X163228152Y-117901067D01*
X163228152Y-117901067D02*
X163228152Y-118091543D01*
X163228152Y-118091543D02*
X163275771Y-118186781D01*
X163275771Y-118186781D02*
X163371009Y-118234400D01*
X163371009Y-118234400D02*
X163466247Y-118234400D01*
X163466247Y-118234400D02*
X163561485Y-117758210D01*
M02*
