M48
; DRILL file KiCad 10.0.1 date 2026-04-27T18:40:24
; FORMAT={-:-/ absolute / metric / decimal}
; #@! TF.CreationDate,2026-04-27T18:40:24+02:00
; #@! TF.GenerationSoftware,Kicad,Pcbnew,10.0.1
; #@! TF.FileFunction,Plated,1,2,PTH
FMAT,2
METRIC
; #@! TA.AperFunction,Plated,PTH,ComponentDrill
T1C1.000
; #@! TA.AperFunction,Plated,PTH,ComponentDrill
T2C2.200
%
G90
G05
T1
X143.635Y-103.01
X143.635Y-105.55
X143.635Y-108.09
X146.175Y-103.01
X146.175Y-105.55
X146.175Y-108.09
X154.528Y-93.97
X154.528Y-96.51
X154.528Y-99.05
X154.528Y-101.59
X154.528Y-104.13
X154.528Y-106.67
X154.528Y-109.21
X154.528Y-111.75
X154.528Y-114.29
X154.528Y-116.83
X157.067Y-93.97
X157.067Y-96.51
X157.067Y-99.05
X157.067Y-101.59
X157.067Y-104.13
X157.067Y-106.67
X157.067Y-109.21
X157.067Y-111.75
X157.067Y-114.29
X157.067Y-116.83
T2
X143.0Y-91.25
X143.0Y-119.5
X150.5Y-91.25
X150.5Y-119.5
M30
